<svg>
    <symbol
            id="arrow" height="30px" width="30px" style="enable-background:new 0 0 512 512;" version="1.1"
            viewBox="0 0 512 512" xml:space="preserve" xmlns="http://www.w3.org/2000/svg"
            xmlns:xlink="http://www.w3.org/1999/xlink"><path d="M322.7,128.4L423,233.4c6,5.8,9,13.7,9,22.4c0,8.7-3,16.5-9,22.4L322.7,383.6c-11.9,12.5-31.3,12.5-43.2,0  c-11.9-12.5-11.9-32.7,0-45.2l48.2-50.4h-217C93.7,288,80,273.7,80,256c0-17.7,13.7-32,30.6-32h217l-48.2-50.4  c-11.9-12.5-11.9-32.7,0-45.2C291.4,115.9,310.7,115.9,322.7,128.4z"/>
    </symbol>
    <symbol
            id="button-save-phone" height="30" width="30" viewBox="0 0 512 512" xmlns="http://www.w3.org/2000/svg">
        <title/>
        <path d="M448,256c0-106-86-192-192-192S64,150,64,256s86,192,192,192S448,362,448,256Z"
              style="fill:none;stroke-miterlimit:10;stroke-width:32px"/>
        <circle cx="256" cy="256" r="144"/>
    </symbol>
    <symbol id="delete-contact" height="30" width="30" viewBox="0 0 24 24" xmlns="http://www.w3.org/2000/svg">
        <title/>
        <g data-name="Layer 2" id="Layer_2">
            <path d="M12,6a4,4,0,1,0-4,4A4,4,0,0,0,12,6ZM6,6A2,2,0,1,1,8,8,2,2,0,0,1,6,6Z"/>
            <path d="M16,10a6,6,0,0,0-4.55,2.1A6,6,0,0,0,2,17v3h9.54A6,6,0,1,0,16,10Zm-5.65,8H4V17a4,4,0,0,1,4-4,4,4,0,0,1,2.41.83A5.9,5.9,0,0,0,10.35,18Zm8.36-.71-1.41,1.41L16,17.41l-1.29,1.29-1.41-1.41L14.59,16l-1.29-1.29,1.41-1.41L16,14.59l1.29-1.29,1.41,1.41L17.41,16Z"/>
        </g>
    </symbol>
    <symbol id="close" height="30px" width="30px" style="enable-background:new 0 0 512 512;" version="1.1"
            viewBox="0 0 512 512"
            xml:space="preserve" xmlns="http://www.w3.org/2000/svg"
            xmlns:xlink="http://www.w3.org/1999/xlink"><g><path d="M256,33C132.3,33,32,133.3,32,257c0,123.7,100.3,224,224,224c123.7,0,224-100.3,224-224C480,133.3,379.7,33,256,33z    M364.3,332.5c1.5,1.5,2.3,3.5,2.3,5.6c0,2.1-0.8,4.2-2.3,5.6l-21.6,21.7c-1.6,1.6-3.6,2.3-5.6,2.3c-2,0-4.1-0.8-5.6-2.3L256,289.8   l-75.4,75.7c-1.5,1.6-3.6,2.3-5.6,2.3c-2,0-4.1-0.8-5.6-2.3l-21.6-21.7c-1.5-1.5-2.3-3.5-2.3-5.6c0-2.1,0.8-4.2,2.3-5.6l75.7-76   l-75.9-75c-3.1-3.1-3.1-8.2,0-11.3l21.6-21.7c1.5-1.5,3.5-2.3,5.6-2.3c2.1,0,4.1,0.8,5.6,2.3l75.7,74.7l75.7-74.7   c1.5-1.5,3.5-2.3,5.6-2.3c2.1,0,4.1,0.8,5.6,2.3l21.6,21.7c3.1,3.1,3.1,8.2,0,11.3l-75.9,75L364.3,332.5z"/></g>
    </symbol>
    <symbol id="phone" height="50" width="50" viewBox="0 0 1792 1792" xmlns="http://www.w3.org/2000/svg">
        <path d="M1408 1193q0-11-2-16-3-8-38.5-29.5t-88.5-49.5l-53-29q-5-3-19-13t-25-15-21-5q-18 0-47 32.5t-57 65.5-44 33q-7 0-16.5-3.5t-15.5-6.5-17-9.5-14-8.5q-99-55-170.5-126.5t-126.5-170.5q-2-3-8.5-14t-9.5-17-6.5-15.5-3.5-16.5q0-13 20.5-33.5t45-38.5 45-39.5 20.5-36.5q0-10-5-21t-15-25-13-19q-3-6-15-28.5t-25-45.5-26.5-47.5-25-40.5-16.5-18-16-2q-48 0-101 22-46 21-80 94.5t-34 130.5q0 16 2.5 34t5 30.5 9 33 10 29.5 12.5 33 11 30q60 164 216.5 320.5t320.5 216.5q6 2 30 11t33 12.5 29.5 10 33 9 30.5 5 34 2.5q57 0 130.5-34t94.5-80q22-53 22-101zm256-777v960q0 119-84.5 203.5t-203.5 84.5h-960q-119 0-203.5-84.5t-84.5-203.5v-960q0-119 84.5-203.5t203.5-84.5h960q119 0 203.5 84.5t84.5 203.5z"/>
    </symbol>
    <symbol id="contact" height="50" width="50" viewBox="0 0 48 48" xmlns="http://www.w3.org/2000/svg">
        <path d="M38 6h-2V2h-4v4H16V2h-4v4h-2c-2.21 0-4 1.79-4 4v28c0 2.21 1.79 4 4 4h28c2.21 0 4-1.79 4-4V10c0-2.21-1.79-4-4-4zm-14 6c3.31 0 6 2.69 6 6 0 3.32-2.69 6-6 6s-6-2.68-6-6c0-3.31 2.69-6 6-6zm12 24H12v-2c0-4 8-6.2 12-6.2S36 30 36 34v2z"/>
        <path d="M0 0h48v48H0z" fill="none"/>
    </symbol>
    <symbol id="mail" height="50" width="50" viewBox="0 0 512 512" xmlns="http://www.w3.org/2000/svg">
        <path d="M207.8 20.73c-93.45 18.32-168.7 93.66-187 187.1c-27.64 140.9 68.65 266.2 199.1 285.1c19.01 2.888 36.17-12.26 36.17-31.49l.0001-.6631c0-15.74-11.44-28.88-26.84-31.24c-84.35-12.98-149.2-86.13-149.2-174.2c0-102.9 88.61-185.5 193.4-175.4c91.54 8.869 158.6 91.25 158.6 183.2l0 16.16c0 22.09-17.94 40.05-40 40.05s-40.01-17.96-40.01-40.05v-120.1c0-8.847-7.161-16.02-16.01-16.02l-31.98 .0036c-7.299 0-13.2 4.992-15.12 11.68c-24.85-12.15-54.24-16.38-86.06-5.106c-38.75 13.73-68.12 48.91-73.72 89.64c-9.483 69.01 43.81 128 110.9 128c26.44 0 50.43-9.544 69.59-24.88c24 31.3 65.23 48.69 109.4 37.49C465.2 369.3 496 324.1 495.1 277.2V256.3C495.1 107.1 361.2-9.332 207.8 20.73zM239.1 304.3c-26.47 0-48-21.56-48-48.05s21.53-48.05 48-48.05s48 21.56 48 48.05S266.5 304.3 239.1 304.3z"/>
    </symbol>

    <symbol id="inst" height="50" width="50" version="1.1" xmlns="http://www.w3.org/2000/svg" xmlns:xlink="http://www.w3.org/1999/xlink"
         x="0px" y="0px"
         viewBox="0 0 56.7 56.7" enable-background="new 0 0 56.7 56.7" xml:space="preserve">
        <g>
            <path d="M28.2,16.7c-7,0-12.8,5.7-12.8,12.8s5.7,12.8,12.8,12.8S41,36.5,41,29.5S35.2,16.7,28.2,16.7z M28.2,37.7
                c-4.5,0-8.2-3.7-8.2-8.2s3.7-8.2,8.2-8.2s8.2,3.7,8.2,8.2S32.7,37.7,28.2,37.7z"/>
            <circle cx="41.5" cy="16.4" r="2.9"/>
            <path d="M49,8.9c-2.6-2.7-6.3-4.1-10.5-4.1H17.9c-8.7,0-14.5,5.8-14.5,14.5v20.5c0,4.3,1.4,8,4.2,10.7c2.7,2.6,6.3,3.9,10.4,3.9
                h20.4c4.3,0,7.9-1.4,10.5-3.9c2.7-2.6,4.1-6.3,4.1-10.6V19.3C53,15.1,51.6,11.5,49,8.9z M48.6,39.9c0,3.1-1.1,5.6-2.9,7.3
                s-4.3,2.6-7.3,2.6H18c-3,0-5.5-0.9-7.3-2.6C8.9,45.4,8,42.9,8,39.8V19.3c0-3,0.9-5.5,2.7-7.3c1.7-1.7,4.3-2.6,7.3-2.6h20.6
                c3,0,5.5,0.9,7.3,2.7c1.7,1.8,2.7,4.3,2.7,7.2V39.9L48.6,39.9z"/>
        </g>
    </symbol>

</svg>